<?xml version="1.0" standalone="no"?>
<svg viewBox="0 0 200 200" xmlns="http://www.w3.org/2000/svg">
  <path fill="#FA4D56" d="M24.2,-27.1C39.2,-27.9,64.7,-34.6,76.4,-29C88.1,-23.4,86.1,-5.7,80.1,9C74,23.6,63.8,35,53.9,47C44,59,34.3,71.4,20.9,78.7C7.6,86,-9.4,88.1,-22.8,82.2C-36.2,76.2,-46,62.3,-55.7,49.3C-65.4,36.3,-75,24.2,-74.8,12C-74.7,-0.2,-64.7,-12.6,-54.2,-20.3C-43.8,-28,-32.9,-31.1,-23.7,-32.9C-14.6,-34.7,-7.3,-35.3,-1.4,-33.2C4.6,-31,9.1,-26.2,24.2,-27.1Z" transform="translate(100 100)" />
</svg>
