<?xml version="1.0" standalone="no"?>
<svg viewBox="0 0 200 200" xmlns="http://www.w3.org/2000/svg">
  <path fill="#FA4D56" d="M32.4,-49.7C46.1,-41.5,64.3,-39.6,69.1,-31C73.9,-22.4,65.3,-7.1,56.7,3.6C48.1,14.4,39.6,20.7,33.8,31.6C28,42.6,24.8,58.3,16.5,64.7C8.1,71.1,-5.6,68.3,-15.5,61.4C-25.4,54.6,-31.6,43.7,-40.6,34.5C-49.6,25.3,-61.3,17.9,-60.6,9.9C-60,1.8,-47,-6.8,-43.7,-22.4C-40.3,-37.9,-46.8,-60.4,-41.1,-72.3C-35.5,-84.2,-17.7,-85.6,-4.2,-79C9.3,-72.5,18.6,-57.9,32.4,-49.7Z" transform="translate(100 100)" />
</svg>
