<?xml version="1.0" standalone="no"?>
<svg viewBox="0 0 200 200" xmlns="http://www.w3.org/2000/svg">
  <path fill="#FA4D56" d="M21.4,-30C31.4,-26.8,45.8,-27.1,56.6,-20.8C67.3,-14.4,74.5,-1.3,72.2,9.9C69.9,21.2,58.2,30.8,46.7,35.9C35.2,41,23.8,41.8,12.7,46.6C1.6,51.5,-9.4,60.4,-18.6,59.4C-27.7,58.5,-35.1,47.6,-45.8,38.1C-56.5,28.6,-70.6,20.4,-68.8,11.8C-67,3.2,-49.5,-5.7,-43.8,-20.8C-38.1,-35.9,-44.3,-57.2,-39,-62.6C-33.6,-68,-16.8,-57.4,-5.6,-48.7C5.7,-40,11.3,-33.2,21.4,-30Z" transform="translate(100 100)" />
</svg>
