<?xml version="1.0" standalone="no"?>
<svg viewBox="0 0 200 200" xmlns="http://www.w3.org/2000/svg">
  <path fill="#FA4D56" d="M32.7,-55.4C38.3,-47.3,35.9,-31.3,42.2,-18.9C48.4,-6.4,63.4,2.4,69.1,14.7C74.7,27,71,42.6,59.5,46.2C48,49.7,28.8,41,14.3,42.5C-0.2,43.9,-10,55.5,-23.2,60.2C-36.5,65,-53.4,62.9,-61.7,53.4C-70.1,43.9,-70,27,-62.6,14.9C-55.2,2.8,-40.4,-4.5,-33.1,-12.9C-25.8,-21.4,-26,-31.1,-21.7,-39.8C-17.5,-48.5,-8.7,-56.2,2.4,-60C13.6,-63.7,27.1,-63.5,32.7,-55.4Z" transform="translate(100 100)" />
</svg>
