<?xml version="1.0" standalone="no"?>
<svg viewBox="0 0 200 200" xmlns="http://www.w3.org/2000/svg">
  <path fill="#FA4D56" d="M30.7,-55.9C37,-43.7,37.4,-30.5,37.2,-20.2C37,-9.8,36.1,-2.4,39.9,9.2C43.6,20.8,52,36.5,48.5,44C45.1,51.5,29.9,50.8,17,51.8C4.2,52.7,-6.4,55.2,-16.8,53.7C-27.1,52.2,-37.3,46.6,-40.9,38C-44.4,29.3,-41.4,17.4,-45.8,4.9C-50.1,-7.5,-61.8,-20.5,-62.5,-32.5C-63.2,-44.4,-52.9,-55.3,-40.6,-64.7C-28.4,-74.2,-14.2,-82.2,-1,-80.6C12.2,-79.1,24.4,-68,30.7,-55.9Z" transform="translate(100 100)" />
</svg>
